#!OML:ASF F:\VICON\USERDATA\INSTALL\rory3\rory3.ASF
:FULLY-SPECIFIED
:DEGREES
55
root 0.2247841405154601 17.8282723610756 21.103282362534397 -1.4505685713070993 1.4867418215216728 3.142140683210691
lfemur 9.09728614074273 -2.4031157187695444 -28.18759144581249
ltibia 11.918725265481026
lfoot -11.211721241247346 -1.3847962697177614
ltoes -8.702870490870785
rfemur -27.44986482351927 6.002306778622717 15.551557834460816
rtibia 24.27421170825551
rfoot -3.4952495840570217 -16.05031259646463
rtoes 3.068671135985476
lowerback 9.276712448092955 -1.1516172442412043 -4.116176390157004
upperback 0.268262358583758 -1.9640009090884487 0.7153228062862741
thorax -4.783078469443757 -0.9075377949563886 3.2310930733576226
lowerneck -16.199132863488156 -2.7766382537899723 -2.8768655588399845
upperneck 20.008743639806045 -3.527322487718513 2.166342333834339
head 9.030957889874196 -1.6925702785932726 0.814431918383777
lclavicle -4.512186586506882e-16 -7.75060668648675e-16
lhumerus -30.446666974478806 2.175370082298957 78.57941881421286
lradius 33.469380823788185
lwrist 8.665386412124489
lhand -29.145487883784224 22.104990208668912
lfingers 7.12502
lthumb -2.655028875746275 51.732446005287386
rclavicle -4.515737584691386e-16 -7.750953209959071e-16
rhumerus -31.881920284197452 -19.255253024943553 -77.56296525734584
rradius 25.759366339900783
rwrist 2.8900615821266142
rhand -17.347906113132943 22.535771650916658
rfingers 7.12502
rthumb 9.16131784595568 -6.895132975337932
56
root 0.1732126639258006 17.756740788169967 21.829234413543524 -1.2605958379724642 2.328980635083403 2.9061458243734792
lfemur 11.913194476978775 -2.546420993809387 -27.55197843029873
ltibia 9.959143939850467
lfoot -10.887262197904343 -1.2283741796697927
ltoes -9.997737484832603
rfemur -26.40551338083916 8.277322951374485 14.514574931658727
rtibia 15.848168790620523
rfoot -5.172963763137532 -16.854139948881514
rtoes 0.5138191579446136
lowerback 9.235748981251108 -1.3695245291230667 -4.2495676628615175
upperback 0.15875926192473538 -2.2930680892667956 0.8282178860517159
thorax -4.704144021289182 -1.0583722936701219 3.556686684973571
lowerneck -16.216202195451665 -2.8004876998343713 -2.9203172678833873
upperneck 19.967190714370428 -3.5600086001379636 2.3263575851072273
head 9.021282356321331 -1.6965426480114996 0.8763971562770383
lclavicle -4.521427990834697e-16 -7.755998546995896e-16
lhumerus -30.355601082937945 2.1913095663984548 78.55169777469588
lradius 33.604242001987586
lwrist 8.478161257862551
lhand -29.253020575569206 21.757813342499368
lfingers 7.12502
lthumb -2.8139984204101616 51.19495804502371
rclavicle -4.515946892436476e-16 -7.751116064246487e-16
rhumerus -32.56106941474235 -20.368692220605855 -76.53936777084998
rradius 24.811023474193316
rwrist 4.06985280137957
rhand -17.340946946023347 22.94684228279879
rfingers 7.12502
rthumb 9.158153606683646 -6.529258626747442
57
root 0.12640722122180237 17.65829661780231 22.72680616497923 -1.4756630588195592 2.234634463870504 3.3392272152969715
lfemur 14.227382578130003 -2.916586781826404 -27.59994384984924
ltibia 10.172834725202566
lfoot -10.708015256567556 -1.8326824435314428
ltoes -11.248250180991391
rfemur -26.945589926341917 4.646248459606734 16.353263889297107
rtibia 17.209875128964928
rfoot -6.160913658798496 -13.803925264873193
rtoes -1.0680703863831598
lowerback 9.470581516377747 -1.3211218614901747 -4.674090274003208
upperback 0.1401634401170268 -2.300043275103387 0.9196672050902606
thorax -4.675644909220839 -1.0619987405953446 3.7241958320433897
lowerneck -16.25937379980158 -2.8116561162883373 -2.951149517594729
upperneck 19.934010839907714 -3.5812890262845585 2.41070556168295
head 9.019000549338479 -1.6961114895010128 0.9115747847931865
lclavicle -4.53154302064555e-16 -7.763649533308686e-16
lhumerus -30.400683818238846 2.3637533900538377 78.5483984837902
lradius 33.45509275533398
lwrist 8.040142319740209
lhand -29.153259024320377 21.691054255600925
lfingers 7.12502
lthumb -2.7030105661344628 51.09448394661063
rclavicle -4.514381932056631e-16 -7.749905323182556e-16
rhumerus -33.32781792318584 -21.791234139208335 -75.36631911797848
rradius 23.75922852956318
rwrist 5.386005176778919
rhand -17.400499700318736 23.18644424044886
rfingers 7.12502
rthumb 9.109389293240941 -6.316235580663877
58
root 0.071516920869862 17.66542332316782 23.72617054489726 -1.767302105733148 2.713980712266421 3.445728285463221
lfemur 15.758364421111716 -3.7804639050495963 -27.48620442174107
ltibia 12.36183466896697
lfoot -9.903818527185035 -2.4964349668637884
ltoes -12.84342746297586
rfemur -27.371499537102103 3.4468235524952147 17.30708255102901
rtibia 21.943855033133136
rfoot -4.591993492697084 -10.738080854783384
rtoes -1.7371876497879901
lowerback 9.16956752917401 -1.475978756305722 -4.921057533340006
upperback 0.19957030443762858 -2.45070664637588 1.0451965442866038
thorax -4.581620608819016 -1.1306796503708259 3.8291445064345186
lowerneck -16.30001606524231 -2.7764258672496274 -2.9554612863741285
upperneck 19.951288875749565 -3.5283262882859936 2.3660187119615737
head 9.032343208000118 -1.6691064993819764 0.9029282244069562
lclavicle -4.499979396987458e-16 -7.745645916602611e-16
lhumerus -30.5794569746456 2.734599810584209 78.61840234444064
lradius 33.065220570890546
lwrist 7.381406214954719
lhand -28.837463510811407 21.943414192188982
lfingers 7.12502
lthumb -2.3841727754310287 51.33255959222547
rclavicle -4.513597226832343e-16 -7.749299402168924e-16
rhumerus -34.098445096140956 -23.275322813001758 -74.15749593647412
rradius 22.681519181487687
rwrist 6.745690290433885
rhand -17.462290378779652 23.29038784676561
rfingers 7.12502
rthumb 9.046062301794649 -6.267860115898207
59
root 0.01602087082494713 17.735474522168502 24.2375933821779 -2.399933874258971 2.9213219224350158 0.7904619056685398
lfemur 14.360281682343048 -5.187960816044235 -24.61203974882751
ltibia 18.44673955467178
lfoot -8.362047790981858 -3.755473983938222
ltoes -15.198430750779886
rfemur -26.094129015560945 4.811194482187247 20.28751498952149
rtibia 24.19667361017224
rfoot -2.7517021093190523 -9.09418304492802
rtoes -1.5426870518852187
lowerback 9.115577398478571 -1.734078473450052 -2.642479269743668
upperback 0.07875941584316426 -2.542154695770799 1.581749106952609
thorax -4.794825339078993 -1.183700021706898 3.758786827398003
lowerneck -16.28474772237072 -2.7090886045582354 -2.9748709145960355
upperneck 20.056867515274785 -3.4195173191571233 2.2067016309206107
head 9.068522616718628 -1.6250371114676976 0.8571161614410956
lclavicle -4.501083607176652e-16 -7.745276216115012e-16
lhumerus -30.936303652032926 3.127943658957165 78.75738174045634
lradius 32.54869450713158
lwrist 6.715824820405253
lhand -28.492756771693198 22.132907198219783
lfingers 7.12502
lthumb -1.9930960515355887 51.60797789606359
rclavicle -4.521386600760061e-16 -7.755322783262027e-16
rhumerus -34.84116269473725 -24.79811995237575 -72.96404119890234
rradius 21.597117078940844
rwrist 8.213049481648852
rhand -17.502590812740642 23.24879835925376
rfingers 7.12502
rthumb 8.994798381088563 -6.363048479905726
60
root -0.04322647964676268 17.804024920396067 24.648082748125887 -3.2385242998853205 2.5445596478347645 -0.23397915235492683
lfemur 11.726834326345939 -5.587997187295091 -23.044720207527163
ltibia 25.667130513759137
lfoot -5.912744649303492 -6.028208822394581
ltoes -17.432367366292162
rfemur -24.15121599126385 3.977898543830531 22.70884418818533
rtibia 27.068269758511697
rfoot -1.844500850314665 -6.150007171482659
rtoes 1.386788270224482
lowerback 8.969591899805364 -1.741064542107685 -1.5067099723155282
upperback 0.030477145917513715 -2.380621655627243 1.970259659209592
thorax -4.916244682896933 -1.1242640831458846 3.573204023635247
lowerneck -16.198823205562316 -2.6274147411747153 -2.9637383588569817
upperneck 20.258849784423386 -3.273965694216235 1.9348637035518021
head 9.12983517202621 -1.57122315903926 0.7733617079398726
lclavicle -4.50147230185807e-16 -7.744377613552726e-16
lhumerus -31.470444967809808 3.460042835242902 78.86805657857215
lradius 32.040249736062485
lwrist 6.265044093936137
lhand -28.14667289461432 22.34091755664336
lfingers 7.12502
lthumb -1.5486605695190576 52.089260599570856
rclavicle -4.529038791210379e-16 -7.761237578949147e-16
rhumerus -35.57655386210849 -26.31956934085845 -71.89567666109733
rradius 20.59673048712519
rwrist 9.746223465044624
rhand -17.523554120308017 23.040230072234127
rfingers 7.12502
rthumb 8.944182845747223 -6.627005629259014
